<svg fill="black" width="26" height="26" viewBox="0 0 32 32" xmlns="http://www.w3.org/2000/svg" fillRule="evenodd">
  <path d="M20.8578 19.9535L26.8125 25.9081C27.0625 26.1579 27.0625 26.563 26.8125 26.8127C26.6879 26.9376 26.5241 27 26.3606 27C26.1968 27 26.0331 26.9376 25.9082 26.8127L19.953 20.8578C18.3665 22.236 16.2979 23.073 14.0364 23.073C9.05349 23.073 5 19.0193 5 14.0367C5 9.0542 9.05349 5 14.0364 5C19.0192 5 23.073 9.05394 23.073 14.0365C23.073 16.2982 22.236 18.3668 20.8578 19.9535ZM14.0364 6.27941C9.75923 6.27941 6.27943 9.75916 6.27943 14.0365C6.27943 18.3136 9.75923 21.7933 14.0364 21.7933C18.3138 21.7933 21.7936 18.3136 21.7936 14.0365C21.7936 9.75941 18.3138 6.27941 14.0364 6.27941Z"/>
</svg>
